<svg width="15" height="16" viewBox="0 0 15 16" fill="none" xmlns="http://www.w3.org/2000/svg">
<path d="M8.82112 12.0523H3.93153C2.86815 12.0523 1.79144 11.2559 1.48019 10.2392L0.0834318 5.67631C-0.076861 5.1525 -0.0040491 4.62921 0.283464 4.24061C0.570978 3.85202 1.04999 3.62905 1.59755 3.62905H11.9424L12.1467 2.78064C12.3644 1.87783 13.0018 0.91847 13.755 0.91847H14.5999C14.821 0.91847 15 1.09743 15 1.31854C15 1.53964 14.821 1.7186 14.5999 1.7186H13.7553C13.5686 1.7186 13.1114 2.19281 12.925 2.96814L11.1855 10.1907C10.938 11.217 9.8773 12.0523 8.82112 12.0523ZM1.59781 4.42891C1.3023 4.42891 1.06412 4.53079 0.926769 4.71616C0.78968 4.90152 0.761942 5.15916 0.848623 5.44188L2.24538 10.0048C2.45235 10.6809 3.22448 11.2519 3.93153 11.2519H8.82112C9.51777 11.2519 10.244 10.6798 10.4072 10.0024L11.7499 4.42864L1.59781 4.42891Z" fill="#3F64FB"/>
<path d="M3.45596 15.0814C2.6889 15.0814 2.06506 14.4576 2.06506 13.6905C2.06506 12.9234 2.6889 12.2996 3.45596 12.2996C4.22302 12.2996 4.84685 12.9234 4.84685 13.6905C4.84685 14.4576 4.22302 15.0814 3.45596 15.0814ZM3.45596 13.0995C3.13004 13.0995 2.86519 13.3646 2.86519 13.6902C2.86519 14.0159 3.1303 14.281 3.45596 14.281C3.78161 14.281 4.04672 14.0159 4.04672 13.6902C4.04672 13.3646 3.78188 13.0995 3.45596 13.0995Z" fill="#3F64FB"/>
<path d="M9.32449 15.0815C8.55743 15.0815 7.93359 14.4576 7.93359 13.6906C7.93359 12.9235 8.55743 12.2997 9.32449 12.2997C10.0915 12.2997 10.7154 12.9235 10.7154 13.6906C10.7154 14.4576 10.0915 15.0815 9.32449 15.0815ZM9.32449 13.0996C8.99857 13.0996 8.73372 13.3647 8.73372 13.6903C8.73372 14.016 8.99883 14.2811 9.32449 14.2811C9.65014 14.2811 9.91525 14.016 9.91525 13.6903C9.91525 13.3647 9.65041 13.0996 9.32449 13.0996Z" fill="#3F64FB"/>
</svg>
