<svg width="117" height="63" viewBox="0 0 117 63" fill="none" xmlns="http://www.w3.org/2000/svg">
<path d="M95.5079 32.2078H116.307L116.688 30.796H99.5408C97.9438 30.796 97.9399 28.6936 99.5369 27.8917L111.928 21.6688L111.543 20.4488L94.6921 28.9122C93.4877 29.5184 92.3832 28.7665 92.7065 27.5656L100.11 0H98.6942L91.7983 25.655C91.4097 27.0976 89.4317 27.7651 88.7775 26.6755L81.7431 14.9203L80.4232 15.845L87.8309 28.2178C88.4351 29.2268 87.296 30.796 85.9569 30.796H61.5251H52.1587L51.7854 32.1925H55.0102C55.4219 32.1925 55.7182 32.58 55.6143 32.9752L52.8552 43.2456H54.2559L57.0189 32.9636C57.142 32.5071 57.5576 32.1887 58.0309 32.1887L82.3358 32.2078C83.9327 32.2078 83.9366 34.3103 82.3396 35.1121L69.9486 41.335L70.3334 42.555L87.1844 34.0916C88.3889 33.4854 89.4933 34.2374 89.17 35.4382L81.7624 63H83.1785L89.9474 37.8169C90.336 36.3743 92.314 35.7068 92.9682 36.7964L100.391 49.1999L101.711 48.2753L93.6339 34.7822C93.0297 33.7732 94.1688 32.204 95.5079 32.204V32.2078Z" fill="#F4F2E6"/>
<path d="M18.0646 30.8L15.6749 39.4437C15.2862 40.8901 13.7893 42.0641 12.3424 42.0641C10.8955 42.0641 10.0297 40.8863 10.4183 39.4437L12.8119 30.7808H11.4112L9.01762 39.4437C8.42116 41.6574 9.74492 43.4606 11.9653 43.4606C14.1857 43.4606 16.4792 41.6574 17.0718 39.4437L19.4615 30.8H18.0607H18.0646Z" fill="#F4F2E6"/>
<path d="M19.5717 37.0763C18.6289 40.5905 20.7261 43.4526 24.251 43.4526H25.2669L25.6402 42.0561H24.6243C21.869 42.0561 20.2297 39.8232 20.9685 37.0763C21.7074 34.3293 24.5473 32.0964 27.3026 32.0964H28.3031L28.6763 30.6999H27.6758C24.1509 30.6999 20.5145 33.5581 19.5678 37.0763H19.5717Z" fill="#F4F2E6"/>
<path d="M32.0632 35.1696L32.6327 33.048C32.7559 32.5914 33.1715 32.273 33.6448 32.273H38.4588L38.8282 30.819H31.9862L28.7307 43.211H35.5727L35.946 41.8145H31.6399C30.9511 41.8145 30.447 41.1623 30.6279 40.4986L31.1243 38.6609C31.2474 38.2043 31.663 37.8859 32.1363 37.8859H37.0388L37.4121 36.4894H33.0753C32.3865 36.4894 31.8823 35.8372 32.0632 35.1734V35.1696Z" fill="#F4F2E6"/>
<path d="M47.0251 40.1073C46.9058 40.5409 46.3016 40.5677 46.14 40.1495L42.9037 30.8037H41.3837L38.1012 43.1305H39.502L41.8763 34.1146C41.9917 33.6811 42.5959 33.6466 42.7613 34.0648L46.0207 43.2149L47.4907 43.1919L50.8771 30.8037H49.4763L47.0251 40.1112V40.1073Z" fill="#F4F2E6"/>
<path d="M2.00158 40.4525L4.7376 30.8266H3.4985L0.000549316 43.2033H6.47311L6.84638 41.8068H3.02903C2.32097 41.8068 1.80917 41.1316 2.00158 40.4525Z" fill="#F4F2E6"/>
</svg>
